# Blender v2.81 (sub 16) OBJ File: ''
# www.blender.org
mtllib force_arrow_tip.mtl
o Cylinder_Cylinder.001
v -0.138889 0.000000 -1.000000
v -0.138889 -0.000000 -0.444444
v -0.136220 0.027096 -0.444444
v -0.136220 0.027096 -1.000000
v -0.128317 0.053151 -0.444444
v -0.128317 0.053151 -1.000000
v -0.115482 0.077163 -0.444444
v -0.115482 0.077163 -1.000000
v -0.098209 0.098209 -0.444444
v -0.098209 0.098209 -1.000000
v -0.077163 0.115482 -0.444444
v -0.077163 0.115482 -1.000000
v -0.053151 0.128317 -0.444444
v -0.053151 0.128317 -1.000000
v -0.027096 0.136220 -0.444444
v -0.027096 0.136220 -1.000000
v 0.000000 0.138889 -0.444444
v 0.000000 0.138889 -1.000000
v 0.027096 0.136220 -0.444444
v 0.027096 0.136220 -1.000000
v 0.053151 0.128317 -0.444444
v 0.053151 0.128317 -1.000000
v 0.077163 0.115482 -0.444444
v 0.077163 0.115482 -1.000000
v 0.098209 0.098209 -0.444444
v 0.098209 0.098209 -1.000000
v 0.115482 0.077163 -0.444444
v 0.115482 0.077163 -1.000000
v 0.128317 0.053151 -0.444444
v 0.128317 0.053151 -1.000000
v 0.136220 0.027096 -0.444444
v 0.136220 0.027096 -1.000000
v 0.138889 -0.000000 -0.444444
v 0.138889 0.000000 -1.000000
v 0.136220 -0.027096 -0.444444
v 0.136220 -0.027096 -1.000000
v 0.128317 -0.053151 -0.444444
v 0.128317 -0.053151 -1.000000
v 0.115482 -0.077163 -0.444444
v 0.115482 -0.077163 -1.000000
v 0.098209 -0.098209 -0.444444
v 0.098209 -0.098209 -1.000000
v 0.077163 -0.115482 -0.444444
v 0.077163 -0.115482 -1.000000
v 0.053150 -0.128317 -0.444444
v 0.053150 -0.128317 -1.000000
v 0.027096 -0.136220 -0.444444
v 0.027096 -0.136220 -1.000000
v 0.000000 -0.138889 -0.444444
v 0.000000 -0.138889 -1.000000
v -0.027096 -0.136220 -0.444444
v -0.027096 -0.136220 -1.000000
v -0.053151 -0.128317 -0.444444
v -0.053151 -0.128317 -1.000000
v -0.077163 -0.115482 -0.444444
v -0.077163 -0.115482 -1.000000
v -0.098209 -0.098209 -0.444444
v -0.098209 -0.098209 -1.000000
v -0.115482 -0.077163 -0.444444
v -0.115482 -0.077163 -1.000000
v -0.128317 -0.053150 -0.444444
v -0.128317 -0.053150 -1.000000
v -0.136220 -0.027096 -0.444444
v -0.136220 -0.027096 -1.000000
v 0.000000 0.000000 -1.000000
v -0.277778 -0.000000 -0.444444
v 0.000000 -0.000000 0.000000
v -0.272440 0.054192 -0.444444
v -0.256633 0.106301 -0.444444
v -0.230964 0.154325 -0.444444
v -0.196419 0.196419 -0.444444
v -0.154325 0.230964 -0.444444
v -0.106301 0.256633 -0.444444
v -0.054192 0.272440 -0.444444
v 0.000000 0.277778 -0.444444
v 0.054192 0.272440 -0.444444
v 0.106301 0.256633 -0.444444
v 0.154325 0.230964 -0.444444
v 0.196419 0.196419 -0.444444
v 0.230964 0.154325 -0.444444
v 0.256633 0.106301 -0.444444
v 0.272440 0.054192 -0.444444
v 0.277778 -0.000000 -0.444444
v 0.272440 -0.054192 -0.444444
v 0.256633 -0.106301 -0.444444
v 0.230964 -0.154325 -0.444444
v 0.196418 -0.196419 -0.444444
v 0.154325 -0.230964 -0.444444
v 0.106301 -0.256633 -0.444444
v 0.054191 -0.272440 -0.444444
v 0.000000 -0.277778 -0.444444
v -0.054192 -0.272440 -0.444444
v -0.106301 -0.256633 -0.444444
v -0.154325 -0.230964 -0.444444
v -0.196419 -0.196418 -0.444444
v -0.230964 -0.154325 -0.444444
v -0.256633 -0.106301 -0.444444
v -0.272441 -0.054191 -0.444444
vt 1.000000 0.500000
vt 1.000000 1.000000
vt 0.968750 1.000000
vt 0.968750 0.500000
vt 0.937500 1.000000
vt 0.937500 0.500000
vt 0.906250 1.000000
vt 0.906250 0.500000
vt 0.875000 1.000000
vt 0.875000 0.500000
vt 0.843750 1.000000
vt 0.843750 0.500000
vt 0.812500 1.000000
vt 0.812500 0.500000
vt 0.781250 1.000000
vt 0.781250 0.500000
vt 0.750000 1.000000
vt 0.750000 0.500000
vt 0.718750 1.000000
vt 0.718750 0.500000
vt 0.687500 1.000000
vt 0.687500 0.500000
vt 0.656250 1.000000
vt 0.656250 0.500000
vt 0.625000 1.000000
vt 0.625000 0.500000
vt 0.593750 1.000000
vt 0.593750 0.500000
vt 0.562500 1.000000
vt 0.562500 0.500000
vt 0.531250 1.000000
vt 0.531250 0.500000
vt 0.500000 1.000000
vt 0.500000 0.500000
vt 0.468750 1.000000
vt 0.468750 0.500000
vt 0.437500 1.000000
vt 0.437500 0.500000
vt 0.406250 1.000000
vt 0.406250 0.500000
vt 0.375000 1.000000
vt 0.375000 0.500000
vt 0.343750 1.000000
vt 0.343750 0.500000
vt 0.312500 1.000000
vt 0.312500 0.500000
vt 0.281250 1.000000
vt 0.281250 0.500000
vt 0.250000 1.000000
vt 0.250000 0.500000
vt 0.218750 1.000000
vt 0.218750 0.500000
vt 0.187500 1.000000
vt 0.187500 0.500000
vt 0.156250 1.000000
vt 0.156250 0.500000
vt 0.125000 1.000000
vt 0.125000 0.500000
vt 0.093750 1.000000
vt 0.093750 0.500000
vt 0.062500 1.000000
vt 0.062500 0.500000
vt 0.296822 0.485388
vt 0.250000 0.490000
vt 0.203179 0.485389
vt 0.158156 0.471731
vt 0.116663 0.449553
vt 0.080295 0.419706
vt 0.050447 0.383337
vt 0.028269 0.341844
vt 0.014612 0.296822
vt 0.010000 0.250000
vt 0.014611 0.203179
vt 0.028269 0.158156
vt 0.050447 0.116663
vt 0.080294 0.080294
vt 0.116663 0.050447
vt 0.158156 0.028269
vt 0.203178 0.014612
vt 0.250000 0.010000
vt 0.296822 0.014612
vt 0.341844 0.028269
vt 0.383337 0.050447
vt 0.419706 0.080294
vt 0.449553 0.116663
vt 0.471731 0.158156
vt 0.485388 0.203178
vt 0.490000 0.250000
vt 0.485388 0.296822
vt 0.471731 0.341844
vt 0.449553 0.383337
vt 0.419706 0.419706
vt 0.383337 0.449553
vt 0.341844 0.471731
vt 0.031250 1.000000
vt 0.031250 0.500000
vt 0.000000 1.000000
vt 0.000000 0.500000
vt 0.550447 0.383337
vt 0.750000 0.250000
vt 0.949553 0.116663
vt 0.919706 0.080294
vt 0.883337 0.050447
vt 0.841844 0.028269
vt 0.796822 0.014612
vt 0.750000 0.010000
vt 0.703178 0.014612
vt 0.658156 0.028269
vt 0.616663 0.050447
vt 0.580294 0.080294
vt 0.550447 0.116663
vt 0.528269 0.158156
vt 0.514611 0.203179
vt 0.510000 0.250000
vt 0.514612 0.296822
vt 0.528269 0.341844
vt 0.250000 0.490000
vt 0.250000 0.250000
vt 0.296822 0.485388
vt 0.341844 0.471731
vt 0.383337 0.449553
vt 0.419706 0.419706
vt 0.449553 0.383337
vt 0.471731 0.341844
vt 0.485388 0.296822
vt 0.490000 0.250000
vt 0.485388 0.203178
vt 0.471731 0.158156
vt 0.449553 0.116663
vt 0.419706 0.080294
vt 0.383337 0.050447
vt 0.341844 0.028269
vt 0.296822 0.014612
vt 0.250000 0.010000
vt 0.203178 0.014612
vt 0.158156 0.028269
vt 0.116663 0.050447
vt 0.080294 0.080294
vt 0.050447 0.116663
vt 0.028269 0.158156
vt 0.014611 0.203179
vt 0.010000 0.250000
vt 0.014612 0.296822
vt 0.028269 0.341844
vt 0.050447 0.383337
vt 0.080295 0.419706
vt 0.116663 0.449553
vt 0.158156 0.471731
vt 0.203179 0.485389
vt 0.750000 0.490000
vt 0.796822 0.485388
vt 0.841844 0.471731
vt 0.883337 0.449553
vt 0.919706 0.419706
vt 0.949553 0.383337
vt 0.971731 0.341844
vt 0.985388 0.296822
vt 0.990000 0.250000
vt 0.985388 0.203178
vt 0.971731 0.158156
vt 0.949553 0.116663
vt 0.919706 0.080294
vt 0.883337 0.050447
vt 0.841844 0.028269
vt 0.796822 0.014612
vt 0.750000 0.010000
vt 0.703178 0.014612
vt 0.658156 0.028269
vt 0.616663 0.050447
vt 0.580294 0.080294
vt 0.550447 0.116663
vt 0.528269 0.158156
vt 0.514611 0.203179
vt 0.510000 0.250000
vt 0.514612 0.296822
vt 0.528269 0.341844
vt 0.550447 0.383337
vt 0.580295 0.419706
vt 0.616663 0.449553
vt 0.658156 0.471731
vt 0.703179 0.485389
vt 0.750000 0.490000
vt 0.796822 0.485388
vt 0.841844 0.471731
vt 0.883337 0.449553
vt 0.919706 0.419706
vt 0.949553 0.383337
vt 0.971731 0.341844
vt 0.985388 0.296822
vt 0.990000 0.250000
vt 0.985388 0.203178
vt 0.971731 0.158156
vt 0.580295 0.419706
vt 0.616663 0.449553
vt 0.658156 0.471731
vt 0.703179 0.485389
vn -0.9952 0.0980 0.0000
vn -0.9569 0.2903 0.0000
vn -0.8819 0.4714 0.0000
vn -0.7730 0.6344 0.0000
vn -0.6344 0.7730 0.0000
vn -0.4714 0.8819 0.0000
vn -0.2903 0.9569 0.0000
vn -0.0980 0.9952 0.0000
vn 0.0980 0.9952 0.0000
vn 0.2903 0.9569 0.0000
vn 0.4714 0.8819 0.0000
vn 0.6344 0.7730 0.0000
vn 0.7730 0.6344 0.0000
vn 0.8819 0.4714 0.0000
vn 0.9569 0.2903 0.0000
vn 0.9952 0.0980 0.0000
vn 0.9952 -0.0980 -0.0000
vn 0.9569 -0.2903 -0.0000
vn 0.8819 -0.4714 -0.0000
vn 0.7730 -0.6344 -0.0000
vn 0.6344 -0.7730 -0.0000
vn 0.4714 -0.8819 -0.0000
vn 0.2903 -0.9569 -0.0000
vn 0.0980 -0.9952 -0.0000
vn -0.0980 -0.9952 -0.0000
vn -0.2903 -0.9569 -0.0000
vn -0.4714 -0.8819 -0.0000
vn -0.6344 -0.7730 -0.0000
vn -0.7730 -0.6344 -0.0000
vn -0.8819 -0.4714 -0.0000
vn 0.0000 0.0000 1.0000
vn -0.9569 -0.2903 -0.0000
vn -0.9952 -0.0980 -0.0000
vn -0.0000 0.0000 -1.0000
vn -0.8451 0.0832 0.5282
vn -0.8126 0.2465 0.5282
vn -0.7489 0.4003 0.5282
vn -0.6564 0.5387 0.5282
vn -0.5387 0.6564 0.5282
vn -0.4003 0.7489 0.5282
vn -0.2465 0.8126 0.5282
vn -0.0832 0.8451 0.5282
vn 0.0832 0.8451 0.5282
vn 0.2465 0.8126 0.5282
vn 0.4003 0.7489 0.5282
vn 0.5387 0.6564 0.5282
vn 0.6564 0.5387 0.5282
vn 0.7489 0.4003 0.5282
vn 0.8126 0.2465 0.5282
vn 0.8451 0.0832 0.5282
vn 0.8451 -0.0832 0.5282
vn 0.8126 -0.2465 0.5282
vn 0.7489 -0.4003 0.5282
vn 0.6564 -0.5387 0.5282
vn 0.5387 -0.6564 0.5282
vn 0.4003 -0.7489 0.5282
vn 0.2465 -0.8126 0.5282
vn 0.0832 -0.8451 0.5282
vn -0.0832 -0.8451 0.5282
vn -0.2465 -0.8126 0.5282
vn -0.4003 -0.7489 0.5282
vn -0.5387 -0.6564 0.5282
vn -0.6564 -0.5387 0.5282
vn -0.7489 -0.4003 0.5282
vn -0.8126 -0.2465 0.5282
vn -0.8451 -0.0832 0.5282
usemtl None
s 1
f 1/1/1 2/2/1 3/3/1 4/4/1
f 4/4/2 3/3/2 5/5/2 6/6/2
f 6/6/3 5/5/3 7/7/3 8/8/3
f 8/8/4 7/7/4 9/9/4 10/10/4
f 10/10/5 9/9/5 11/11/5 12/12/5
f 12/12/6 11/11/6 13/13/6 14/14/6
f 14/14/7 13/13/7 15/15/7 16/16/7
f 16/16/8 15/15/8 17/17/8 18/18/8
f 18/18/9 17/17/9 19/19/9 20/20/9
f 20/20/10 19/19/10 21/21/10 22/22/10
f 22/22/11 21/21/11 23/23/11 24/24/11
f 24/24/12 23/23/12 25/25/12 26/26/12
f 26/26/13 25/25/13 27/27/13 28/28/13
f 28/28/14 27/27/14 29/29/14 30/30/14
f 30/30/15 29/29/15 31/31/15 32/32/15
f 32/32/16 31/31/16 33/33/16 34/34/16
f 34/34/17 33/33/17 35/35/17 36/36/17
f 36/36/18 35/35/18 37/37/18 38/38/18
f 38/38/19 37/37/19 39/39/19 40/40/19
f 40/40/20 39/39/20 41/41/20 42/42/20
f 42/42/21 41/41/21 43/43/21 44/44/21
f 44/44/22 43/43/22 45/45/22 46/46/22
f 46/46/23 45/45/23 47/47/23 48/48/23
f 48/48/24 47/47/24 49/49/24 50/50/24
f 50/50/25 49/49/25 51/51/25 52/52/25
f 52/52/26 51/51/26 53/53/26 54/54/26
f 54/54/27 53/53/27 55/55/27 56/56/27
f 56/56/28 55/55/28 57/57/28 58/58/28
f 58/58/29 57/57/29 59/59/29 60/60/29
f 60/60/30 59/59/30 61/61/30 62/62/30
f 3/63/31 2/64/31 63/65/31 61/66/31 59/67/31 57/68/31 55/69/31 53/70/31 51/71/31 49/72/31 47/73/31 45/74/31 43/75/31 41/76/31 39/77/31 37/78/31 35/79/31 33/80/31 31/81/31 29/82/31 27/83/31 25/84/31 23/85/31 21/86/31 19/87/31 17/88/31 15/89/31 13/90/31 11/91/31 9/92/31 7/93/31 5/94/31
f 62/62/32 61/61/32 63/95/32 64/96/32
f 64/96/33 63/95/33 2/97/33 1/98/33
f 56/99/34 65/100/34 24/101/34 26/102/34 28/103/34 30/104/34 32/105/34 34/106/34 36/107/34 38/108/34 40/109/34 42/110/34 44/111/34 46/112/34 48/113/34 50/114/34 52/115/34 54/116/34
f 66/117/35 67/118/35 68/119/35
f 68/119/36 67/118/36 69/120/36
f 69/120/37 67/118/37 70/121/37
f 70/121/38 67/118/38 71/122/38
f 71/122/39 67/118/39 72/123/39
f 72/123/40 67/118/40 73/124/40
f 73/124/41 67/118/41 74/125/41
f 74/125/42 67/118/42 75/126/42
f 75/126/43 67/118/43 76/127/43
f 76/127/44 67/118/44 77/128/44
f 77/128/45 67/118/45 78/129/45
f 78/129/46 67/118/46 79/130/46
f 79/130/47 67/118/47 80/131/47
f 80/131/48 67/118/48 81/132/48
f 81/132/49 67/118/49 82/133/49
f 82/133/50 67/118/50 83/134/50
f 83/134/51 67/118/51 84/135/51
f 84/135/52 67/118/52 85/136/52
f 85/136/53 67/118/53 86/137/53
f 86/137/54 67/118/54 87/138/54
f 87/138/55 67/118/55 88/139/55
f 88/139/56 67/118/56 89/140/56
f 89/140/57 67/118/57 90/141/57
f 90/141/58 67/118/58 91/142/58
f 91/142/59 67/118/59 92/143/59
f 92/143/60 67/118/60 93/144/60
f 93/144/61 67/118/61 94/145/61
f 94/145/62 67/118/62 95/146/62
f 95/146/63 67/118/63 96/147/63
f 96/147/64 67/118/64 97/148/64
f 97/148/65 67/118/65 98/149/65
f 98/149/66 67/118/66 66/117/66
f 66/150/34 68/151/34 69/152/34 70/153/34 71/154/34 72/155/34 73/156/34 74/157/34 75/158/34 76/159/34 77/160/34 78/161/34 79/162/34 80/163/34 81/164/34 82/165/34 83/166/34 84/167/34 85/168/34 86/169/34 87/170/34 88/171/34 89/172/34 90/173/34 91/174/34 92/175/34 93/176/34 94/177/34 95/178/34 96/179/34 97/180/34 98/181/34
f 1/182/34 4/183/34 6/184/34 8/185/34 10/186/34 12/187/34 14/188/34 16/189/34 18/190/34 20/191/34 22/192/34 24/101/34 65/100/34 56/99/34 58/193/34 60/194/34 62/195/34 64/196/34
