# Blender v2.60 (sub 0) OBJ File: 'humanfigure25.blend'
# www.blender.org
o Mesh.015_Cube-mesh.015
v 0.032841 0.579158 -0.071079
v -0.043214 0.579158 -0.070720
v -0.042539 0.579158 0.071159
v 0.033516 0.579158 0.070801
v 0.107084 0.479255 -0.076626
v 0.089198 0.542179 -0.069411
v 0.089856 0.542179 0.068776
v 0.107811 0.479255 0.076101
v 0.047399 0.479255 0.178207
v 0.036719 0.542179 0.162390
v -0.044910 0.542179 0.162774
v -0.055504 0.479255 0.178695
v -0.046457 0.542179 -0.162131
v 0.035172 0.542179 -0.162518
v 0.045702 0.479255 -0.178155
v -0.057201 0.479255 -0.177665
v -0.124591 0.479255 0.077203
v -0.098937 0.542179 0.069667
v -0.099595 0.542179 -0.068517
v -0.125319 0.479255 -0.075522
v -0.134381 0.427808 0.074582
v -0.135082 0.427808 -0.072604
v -0.120685 0.384083 -0.062504
v -0.120081 0.384083 0.064397
v -0.061374 0.427808 -0.171081
v 0.049890 0.427808 -0.171611
v 0.043693 0.384083 -0.148339
v -0.054967 0.384083 -0.147870
v 0.045108 0.384083 0.148663
v 0.051526 0.427808 0.171824
v -0.059738 0.427808 0.172354
v -0.053553 0.384083 0.149133
v 0.116828 0.427808 -0.073803
v 0.117529 0.427808 0.073384
v 0.103121 0.384083 0.063334
v 0.102517 0.384083 -0.063567
v 0.044098 0.373939 -0.063289
v 0.044702 0.373939 0.063613
v -0.053958 0.373939 0.064082
v -0.054562 0.373939 -0.062819
v -0.005211 0.583854 -0.076507
v -0.045232 0.583854 0.000219
v -0.004482 0.583854 0.076566
v 0.035538 0.583854 -0.000161
v 0.104737 0.512654 -0.075909
v 0.095912 0.544233 -0.000352
v 0.105457 0.512654 0.075261
v 0.107660 0.479255 -0.000263
v 0.043181 0.512654 0.176647
v -0.004037 0.544233 0.174711
v -0.051268 0.512654 0.177092
v -0.003992 0.479255 0.191178
v -0.114506 0.512654 0.076301
v -0.105648 0.544233 0.000600
v -0.115226 0.512654 -0.074865
v -0.133530 0.479255 0.000881
v 0.041499 0.512654 -0.176700
v -0.005810 0.479255 -0.190637
v -0.052951 0.512654 -0.176251
v -0.005699 0.544233 -0.174463
v -0.144004 0.427808 0.001033
v -0.132704 0.398643 -0.069714
v -0.128779 0.383686 0.000987
v -0.132030 0.398643 0.071708
v -0.005800 0.427808 -0.183611
v 0.048864 0.398643 -0.164975
v -0.005688 0.383686 -0.158905
v -0.060294 0.398643 -0.164455
v 0.117381 0.427808 -0.000210
v 0.115142 0.398643 0.070532
v 0.111215 0.383686 -0.000156
v 0.114468 0.398643 -0.070891
v -0.004048 0.427808 0.184354
v -0.058721 0.398643 0.165756
v -0.004171 0.383686 0.159698
v 0.050437 0.398643 0.165236
v 0.048074 0.373033 0.000144
v -0.004605 0.373033 0.068572
v -0.057933 0.373033 0.000649
v -0.005254 0.373033 -0.067779
v 0.049978 0.448725 0.174218
v -0.058151 0.448725 0.174731
v 0.113174 0.448725 -0.074861
v 0.113885 0.448725 0.074403
v 0.048320 0.448725 -0.174065
v -0.059809 0.448725 -0.173550
v -0.130710 0.448725 0.075565
v -0.131421 0.448725 -0.073698
v 0.065968 0.565217 -0.065143
v 0.066586 0.565217 0.064619
v 0.032126 0.565217 0.129190
v -0.040608 0.565217 0.129533
v -0.075681 0.565217 0.065290
v -0.076299 0.565217 -0.064471
v 0.030894 0.565217 -0.129386
v -0.041839 0.565217 -0.129042
v 0.090093 0.479255 0.139823
v 0.070352 0.540124 0.126761
v 0.088760 0.479255 -0.140177
v 0.069142 0.540124 -0.127200
v -0.098562 0.479255 0.140716
v -0.078883 0.540124 0.127465
v -0.099896 0.479255 -0.139280
v -0.080092 0.540124 -0.126492
v -0.107558 0.427808 -0.134064
v -0.096010 0.384479 -0.115611
v -0.095735 0.377381 -0.057898
v -0.095176 0.377381 0.059553
v -0.106273 0.427808 0.135777
v -0.094901 0.384479 0.117267
v 0.096425 0.427808 -0.135035
v 0.085041 0.384479 -0.116473
v -0.051141 0.377381 -0.115824
v 0.040172 0.377381 -0.116259
v 0.097710 0.427808 0.134807
v 0.086150 0.384479 0.116404
v 0.085876 0.377381 0.058691
v 0.085316 0.377381 -0.058760
v -0.050032 0.377381 0.117053
v 0.041281 0.377381 0.116618
v -0.004844 0.588843 0.000017
v 0.104501 0.513168 -0.000322
v -0.003982 0.513168 0.189620
v -0.122632 0.513168 0.000753
v -0.005786 0.513168 -0.189228
v -0.141507 0.398466 0.001041
v -0.005771 0.398466 -0.176556
v 0.116182 0.398466 -0.000186
v -0.004086 0.398466 0.177337
v -0.004930 0.372070 0.000397
v -0.004027 0.448725 0.186913
v 0.114178 0.448725 -0.000232
v -0.005804 0.448725 -0.186246
v -0.140076 0.448725 0.000976
v 0.070822 0.568959 -0.000292
v -0.004191 0.568959 0.139382
v -0.080531 0.568959 0.000422
v -0.005518 0.568959 -0.139253
v 0.082301 0.512140 0.138438
v 0.080981 0.512140 -0.138861
v -0.090751 0.512140 0.139255
v -0.092071 0.512140 -0.138039
v -0.105629 0.398820 -0.128798
v -0.102146 0.376659 0.000860
v -0.104394 0.398820 0.130532
v 0.094538 0.398820 -0.129751
v -0.005525 0.376659 -0.124648
v 0.095772 0.398820 0.129579
v 0.092287 0.376659 -0.000066
v -0.004334 0.376659 0.125442
v 0.093551 0.448725 -0.136963
v 0.094854 0.448725 0.136688
v -0.103382 0.448725 0.137629
v -0.104685 0.448725 -0.136020
v 0.056312 0.557636 -0.109323
v 0.057351 0.557636 0.108924
v -0.066034 0.557636 0.109505
v -0.067073 0.557636 -0.108739
v -0.082370 0.379429 -0.098238
v -0.081427 0.379429 0.099764
v 0.072511 0.379429 0.099031
v 0.071568 0.379429 -0.098971
vn 0.276650 0.948576 -0.153752
vn -0.000702 0.987457 -0.157689
vn 0.000000 1.000000 0.000000
vn 0.264565 0.964354 -0.001282
vn 0.558519 0.829463 -0.002686
vn 0.551500 0.818964 -0.158483
vn 0.534043 0.792474 -0.294473
vn 0.328867 0.866268 -0.375988
vn -0.001953 0.904843 -0.425703
vn -0.277963 0.948607 -0.151067
vn -0.264473 0.964385 0.001221
vn -0.332286 0.866390 -0.372753
vn -0.536546 0.792718 -0.289285
vn -0.552690 0.819178 -0.153142
vn -0.558245 0.829646 0.002594
vn -0.276345 0.948698 0.153539
vn 0.000732 0.987487 0.157537
vn -0.550920 0.819391 0.158238
vn -0.533250 0.793207 0.293985
vn -0.328257 0.866817 0.375225
vn 0.002014 0.905271 0.424818
vn 0.277871 0.948668 0.150945
vn 0.331919 0.866726 0.372204
vn 0.536271 0.792993 0.289041
vn 0.552660 0.819178 0.153050
vn 0.976287 0.146886 -0.158849
vn 0.944395 0.277779 -0.175817
vn 0.972869 0.231269 -0.004578
vn 0.989837 0.142003 -0.004700
vn 0.983306 0.181738 -0.004669
vn 0.974822 0.160405 -0.154759
vn 0.828242 0.064486 -0.556597
vn 0.828120 0.108158 -0.549974
vn 0.789666 0.319407 -0.523820
vn 0.797418 0.577471 -0.175024
vn 0.832453 0.554033 -0.003937
vn 0.672964 0.609363 -0.419202
vn 0.798761 0.577899 0.167241
vn 0.945860 0.278451 0.166723
vn 0.676199 0.610584 0.412183
vn 0.794122 0.321390 0.515793
vn 0.977660 0.147588 0.149541
vn 0.833125 0.110477 0.541917
vn 0.833369 0.066561 0.548662
vn 0.976165 0.160955 0.145451
vn 0.468276 0.020753 0.883297
vn 0.469802 0.286874 0.834834
vn 0.004547 0.258187 0.966063
vn 0.004700 -0.030213 0.999512
vn 0.004700 -0.116581 0.993164
vn 0.450819 -0.063478 0.890347
vn 0.415998 0.631092 0.654683
vn 0.003632 0.645070 0.764092
vn -0.409650 0.631336 0.658437
vn -0.461806 0.287301 0.839137
vn -0.671957 0.611011 0.418439
vn -0.773797 0.345805 0.530656
vn -0.459883 0.021241 0.887692
vn -0.803186 0.134190 0.580401
vn -0.797143 0.059389 0.600818
vn -0.442335 -0.063051 0.894589
vn -0.416517 0.629536 -0.655843
vn -0.003571 0.643086 -0.765770
vn -0.004578 0.254402 -0.967071
vn -0.470199 0.284005 -0.835566
vn -0.779412 0.343730 -0.523759
vn -0.676595 0.609821 -0.412641
vn 0.410413 0.629292 -0.659902
vn 0.462325 0.283608 -0.840083
vn 0.459975 0.017121 -0.887753
vn -0.004730 -0.034364 -0.999390
vn 0.442274 -0.066897 -0.894345
vn -0.004730 -0.120365 -0.992706
vn -0.468398 0.017548 -0.883328
vn -0.450789 -0.066500 -0.890133
vn -0.802972 0.057100 -0.593249
vn -0.808924 0.131779 -0.572893
vn -0.943144 0.221839 0.247383
vn -0.896481 0.381848 0.224677
vn -0.920743 0.390088 0.004364
vn -0.968535 0.248756 0.004578
vn -0.982208 0.187597 0.004669
vn -0.952147 0.157079 0.262123
vn -0.774926 0.603534 0.187567
vn -0.797937 0.602710 0.003754
vn -0.777062 0.603015 -0.180334
vn -0.898892 0.380993 -0.216285
vn -0.945677 0.220832 -0.238472
vn -0.954741 0.156102 -0.253090
vn -0.961241 0.019807 0.274911
vn -0.999023 0.043214 0.004791
vn -0.922971 -0.384808 0.004395
vn -0.876095 -0.405774 0.260262
vn -0.696432 -0.453749 0.555895
vn -0.788446 -0.051119 0.612964
vn -0.963866 0.019196 -0.265633
vn -0.878475 -0.405988 -0.251808
vn -0.794275 -0.052522 -0.605243
vn -0.701559 -0.454207 -0.549028
vn -0.514145 -0.845668 -0.143071
vn -0.542955 -0.839747 0.002594
vn -0.404035 -0.862880 -0.303537
vn -0.158605 -0.980193 -0.118381
vn -0.170446 -0.983428 -0.061739
vn -0.175268 -0.984497 0.000824
vn -0.512803 -0.845637 0.147984
vn -0.169836 -0.983428 0.063356
vn -0.157476 -0.980193 0.119877
vn -0.401196 -0.862819 0.307443
vn -0.436415 -0.135899 -0.889401
vn -0.004700 -0.170934 -0.985260
vn -0.004089 -0.510239 -0.860012
vn -0.376049 -0.496292 -0.782464
vn 0.427900 -0.136143 -0.893490
vn 0.368542 -0.496353 -0.785974
vn 0.821039 -0.047365 -0.568834
vn 0.728599 -0.448103 -0.517991
vn 0.204749 -0.883175 -0.421949
vn -0.002167 -0.889218 -0.457472
vn 0.435194 -0.853420 -0.286782
vn 0.175878 -0.977111 -0.119572
vn 0.083132 -0.987365 -0.134739
vn -0.000641 -0.990051 -0.140599
vn -0.208777 -0.883145 -0.419996
vn -0.084414 -0.987365 -0.133946
vn 0.208838 -0.883084 0.420148
vn 0.376141 -0.495743 0.782769
vn 0.004059 -0.509537 0.860408
vn 0.002167 -0.889126 0.457625
vn 0.000641 -0.990051 0.140599
vn 0.084414 -0.987365 0.133946
vn 0.177007 -0.977111 0.117893
vn 0.437971 -0.853359 0.282693
vn 0.733604 -0.447707 0.511216
vn 0.436415 -0.134037 0.889676
vn 0.004639 -0.168554 0.985656
vn 0.826380 -0.046113 0.561205
vn -0.427961 -0.133763 0.893826
vn -0.368694 -0.495651 0.786340
vn -0.204840 -0.883084 0.422132
vn -0.083132 -0.987365 0.134739
vn 0.985748 0.027863 -0.165716
vn 0.998718 0.050295 -0.004730
vn 0.955535 -0.294809 -0.004547
vn 0.918027 -0.357616 -0.171087
vn 0.987274 0.028230 0.156407
vn 0.919675 -0.357463 0.162420
vn 0.592181 -0.797449 0.115604
vn 0.653890 -0.756554 -0.003082
vn 0.211280 -0.975341 0.063509
vn 0.227454 -0.973785 -0.001068
vn 0.591021 -0.797479 -0.121189
vn 0.210669 -0.975341 -0.065523
vn 0.056978 -0.997345 -0.044801
vn 0.052461 -0.998596 -0.000244
vn 0.000000 -1.000000 0.000000
vn -0.000183 -0.999115 -0.041414
vn 0.057405 -0.997345 0.044252
vn 0.000183 -0.999115 0.041414
vn -0.056978 -0.997345 0.044801
vn -0.052461 -0.998596 0.000244
vn -0.057405 -0.997345 -0.044252
usemtl Orange
s 1
f 1//1 41//2 121//3
f 1//1 121//3 44//4
f 1//1 44//4 135//5
f 1//1 135//5 89//6
f 1//1 89//6 155//7
f 1//1 155//7 95//8
f 1//1 95//8 138//9
f 1//1 138//9 41//2
f 2//10 42//11 121//3
f 2//10 121//3 41//2
f 2//10 41//2 138//9
f 2//10 138//9 96//12
f 2//10 96//12 158//13
f 2//10 158//13 94//14
f 2//10 94//14 137//15
f 2//10 137//15 42//11
f 3//16 43//17 121//3
f 3//16 121//3 42//11
f 3//16 42//11 137//15
f 3//16 137//15 93//18
f 3//16 93//18 157//19
f 3//16 157//19 92//20
f 3//16 92//20 136//21
f 3//16 136//21 43//17
f 4//22 44//4 121//3
f 4//22 121//3 43//17
f 4//22 43//17 136//21
f 4//22 136//21 91//23
f 4//22 91//23 156//24
f 4//22 156//24 90//25
f 4//22 90//25 135//5
f 4//22 135//5 44//4
f 5//26 45//27 122//28
f 5//26 122//28 48//29
f 5//26 48//29 132//30
f 5//26 132//30 83//31
f 5//26 83//31 151//32
f 5//26 151//32 99//33
f 5//26 99//33 140//34
f 5//26 140//34 45//27
f 6//35 46//36 122//28
f 6//35 122//28 45//27
f 6//35 45//27 140//34
f 6//35 140//34 100//37
f 6//35 100//37 155//7
f 6//35 155//7 89//6
f 6//35 89//6 135//5
f 6//35 135//5 46//36
f 7//38 47//39 122//28
f 7//38 122//28 46//36
f 7//38 46//36 135//5
f 7//38 135//5 90//25
f 7//38 90//25 156//24
f 7//38 156//24 98//40
f 7//38 98//40 139//41
f 7//38 139//41 47//39
f 8//42 48//29 122//28
f 8//42 122//28 47//39
f 8//42 47//39 139//41
f 8//42 139//41 97//43
f 8//42 97//43 152//44
f 8//42 152//44 84//45
f 8//42 84//45 132//30
f 8//42 132//30 48//29
f 9//46 49//47 123//48
f 9//46 123//48 52//49
f 9//46 52//49 131//50
f 9//46 131//50 81//51
f 9//46 81//51 152//44
f 9//46 152//44 97//43
f 9//46 97//43 139//41
f 9//46 139//41 49//47
f 10//52 50//53 123//48
f 10//52 123//48 49//47
f 10//52 49//47 139//41
f 10//52 139//41 98//40
f 10//52 98//40 156//24
f 10//52 156//24 91//23
f 10//52 91//23 136//21
f 10//52 136//21 50//53
f 11//54 51//55 123//48
f 11//54 123//48 50//53
f 11//54 50//53 136//21
f 11//54 136//21 92//20
f 11//54 92//20 157//19
f 11//54 157//19 102//56
f 11//54 102//56 141//57
f 11//54 141//57 51//55
f 12//58 52//49 123//48
f 12//58 123//48 51//55
f 12//58 51//55 141//57
f 12//58 141//57 101//59
f 12//58 101//59 153//60
f 12//58 153//60 82//61
f 12//58 82//61 131//50
f 12//58 131//50 52//49
f 13//62 60//63 125//64
f 13//62 125//64 59//65
f 13//62 59//65 142//66
f 13//62 142//66 104//67
f 13//62 104//67 158//13
f 13//62 158//13 96//12
f 13//62 96//12 138//9
f 13//62 138//9 60//63
f 14//68 57//69 125//64
f 14//68 125//64 60//63
f 14//68 60//63 138//9
f 14//68 138//9 95//8
f 14//68 95//8 155//7
f 14//68 155//7 100//37
f 14//68 100//37 140//34
f 14//68 140//34 57//69
f 15//70 58//71 125//64
f 15//70 125//64 57//69
f 15//70 57//69 140//34
f 15//70 140//34 99//33
f 15//70 99//33 151//32
f 15//70 151//32 85//72
f 15//70 85//72 133//73
f 15//70 133//73 58//71
f 16//74 59//65 125//64
f 16//74 125//64 58//71
f 16//74 58//71 133//73
f 16//74 133//73 86//75
f 16//74 86//75 154//76
f 16//74 154//76 103//77
f 16//74 103//77 142//66
f 16//74 142//66 59//65
f 17//78 53//79 124//80
f 17//78 124//80 56//81
f 17//78 56//81 134//82
f 17//78 134//82 87//83
f 17//78 87//83 153//60
f 17//78 153//60 101//59
f 17//78 101//59 141//57
f 17//78 141//57 53//79
f 18//84 54//85 124//80
f 18//84 124//80 53//79
f 18//84 53//79 141//57
f 18//84 141//57 102//56
f 18//84 102//56 157//19
f 18//84 157//19 93//18
f 18//84 93//18 137//15
f 18//84 137//15 54//85
f 19//86 55//87 124//80
f 19//86 124//80 54//85
f 19//86 54//85 137//15
f 19//86 137//15 94//14
f 19//86 94//14 158//13
f 19//86 158//13 104//67
f 19//86 104//67 142//66
f 19//86 142//66 55//87
f 20//88 56//81 124//80
f 20//88 124//80 55//87
f 20//88 55//87 142//66
f 20//88 142//66 103//77
f 20//88 103//77 154//76
f 20//88 154//76 88//89
f 20//88 88//89 134//82
f 20//88 134//82 56//81
f 21//90 61//91 126//92
f 21//90 126//92 64//93
f 21//90 64//93 145//94
f 21//90 145//94 109//95
f 21//90 109//95 153//60
f 21//90 153//60 87//83
f 21//90 87//83 134//82
f 21//90 134//82 61//91
f 22//96 62//97 126//92
f 22//96 126//92 61//91
f 22//96 61//91 134//82
f 22//96 134//82 88//89
f 22//96 88//89 154//76
f 22//96 154//76 105//98
f 22//96 105//98 143//99
f 22//96 143//99 62//97
f 23//100 63//101 126//92
f 23//100 126//92 62//97
f 23//100 62//97 143//99
f 23//100 143//99 106//102
f 23//100 106//102 159//103
f 23//100 159//103 107//104
f 23//100 107//104 144//105
f 23//100 144//105 63//101
f 24//106 64//93 126//92
f 24//106 126//92 63//101
f 24//106 63//101 144//105
f 24//106 144//105 108//107
f 24//106 108//107 160//108
f 24//106 160//108 110//109
f 24//106 110//109 145//94
f 24//106 145//94 64//93
f 25//110 65//111 127//112
f 25//110 127//112 68//113
f 25//110 68//113 143//99
f 25//110 143//99 105//98
f 25//110 105//98 154//76
f 25//110 154//76 86//75
f 25//110 86//75 133//73
f 25//110 133//73 65//111
f 26//114 66//115 127//112
f 26//114 127//112 65//111
f 26//114 65//111 133//73
f 26//114 133//73 85//72
f 26//114 85//72 151//32
f 26//114 151//32 111//116
f 26//114 111//116 146//117
f 26//114 146//117 66//115
f 27//118 67//119 127//112
f 27//118 127//112 66//115
f 27//118 66//115 146//117
f 27//118 146//117 112//120
f 162//121 114//122 27//118
f 162//121 27//118 112//120
f 27//118 114//122 147//123
f 27//118 147//123 67//119
f 28//124 68//113 127//112
f 28//124 127//112 67//119
f 28//124 67//119 147//123
f 28//124 147//123 113//125
f 28//124 113//125 159//103
f 28//124 159//103 106//102
f 28//124 106//102 143//99
f 28//124 143//99 68//113
f 29//126 76//127 129//128
f 29//126 129//128 75//129
f 29//126 75//129 150//130
f 29//126 150//130 120//131
f 29//126 120//131 161//132
f 29//126 161//132 116//133
f 29//126 116//133 148//134
f 29//126 148//134 76//127
f 30//135 73//136 129//128
f 30//135 129//128 76//127
f 30//135 76//127 148//134
f 30//135 148//134 115//137
f 30//135 115//137 152//44
f 30//135 152//44 81//51
f 30//135 81//51 131//50
f 30//135 131//50 73//136
f 31//138 74//139 129//128
f 31//138 129//128 73//136
f 31//138 73//136 131//50
f 31//138 131//50 82//61
f 31//138 82//61 153//60
f 31//138 153//60 109//95
f 31//138 109//95 145//94
f 31//138 145//94 74//139
f 32//140 75//129 129//128
f 32//140 129//128 74//139
f 32//140 74//139 145//94
f 32//140 145//94 110//109
f 32//140 110//109 160//108
f 32//140 160//108 119//141
f 32//140 119//141 150//130
f 32//140 150//130 75//129
f 33//142 69//143 128//144
f 33//142 128//144 72//145
f 33//142 72//145 146//117
f 33//142 146//117 111//116
f 33//142 111//116 151//32
f 33//142 151//32 83//31
f 33//142 83//31 132//30
f 33//142 132//30 69//143
f 34//146 70//147 128//144
f 34//146 128//144 69//143
f 34//146 69//143 132//30
f 34//146 132//30 84//45
f 34//146 84//45 152//44
f 34//146 152//44 115//137
f 34//146 115//137 148//134
f 34//146 148//134 70//147
f 35//148 71//149 128//144
f 35//148 128//144 70//147
f 35//148 70//147 148//134
f 35//148 148//134 116//133
f 35//148 116//133 161//132
f 35//148 161//132 117//150
f 35//148 117//150 149//151
f 35//148 149//151 71//149
f 36//152 72//145 128//144
f 36//152 128//144 71//149
f 36//152 71//149 149//151
f 36//152 149//151 118//153
f 162//121 112//120 36//152
f 162//121 36//152 118//153
f 36//152 112//120 146//117
f 36//152 146//117 72//145
f 37//154 77//155 130//156
f 37//154 130//156 80//157
f 37//154 80//157 147//123
f 37//154 147//123 114//122
f 162//121 118//153 37//154
f 162//121 37//154 114//122
f 37//154 118//153 149//151
f 37//154 149//151 77//155
f 38//158 78//159 130//156
f 38//158 130//156 77//155
f 38//158 77//155 149//151
f 38//158 149//151 117//150
f 38//158 117//150 161//132
f 38//158 161//132 120//131
f 38//158 120//131 150//130
f 38//158 150//130 78//159
f 39//160 79//161 130//156
f 39//160 130//156 78//159
f 39//160 78//159 150//130
f 39//160 150//130 119//141
f 39//160 119//141 160//108
f 39//160 160//108 108//107
f 39//160 108//107 144//105
f 39//160 144//105 79//161
f 40//162 80//157 130//156
f 40//162 130//156 79//161
f 40//162 79//161 144//105
f 40//162 144//105 107//104
f 40//162 107//104 159//103
f 40//162 159//103 113//125
f 40//162 113//125 147//123
f 40//162 147//123 80//157
